# xmcd
#
# Track frame offsets:
#	150
#	6172
#	17432
#	31122
#	42480
#	52255
#	62312
#	69370
#	77307
#	86472
#	94640
#	106880
#	114727
#	129930
#	137495
#	152000
#	160697
#	169042
#	180400
#
# Disc length: 2562 seconds
#
# Revision: 0
# Processed by: cddbd v1.5.1PL2 Copyright (c) Steve Scherf et al.
# Submitted via: audiograbber 1.83.01
#
DISCID=d60a0013
DTITLE=Jim Reeves - The Great Jim Reeves
DYEAR=1993
DGENRE=Country
TTITLE0=Have I Told You Lately That I Love You
TTITLE1=Just Call Me Lonesome
TTITLE2=How's The World Treating You
TTITLE3=If Heartaches Is The Fashion
TTITLE4=Home
TTITLE5=Dear Hearts And Gentle People
TTITLE6=I'm Beginning To Forget You
TTITLE7=Roly Poly
TTITLE8=The Wind Up
TTITLE9=Sweet Evening Breeze
TTITLE10=Your Old Love Letters
TTITLE11='Till The End Of The World
TTITLE12=Making Believe
TTITLE13=The Oklahoma Hills
TTITLE14=The Highway To Nowhere
TTITLE15=If You Were Mine
TTITLE16=Everywhere You Go
TTITLE17=I Love You More
TTITLE18=I've Lived A Lot In My Time
EXTD=
EXTT0=
EXTT1=
EXTT2=
EXTT3=
EXTT4=
EXTT5=
EXTT6=
EXTT7=
EXTT8=
EXTT9=
EXTT10=
EXTT11=
EXTT12=
EXTT13=
EXTT14=
EXTT15=
EXTT16=
EXTT17=
EXTT18=
PLAYORDER=
